<?xml version="1.0" encoding="utf-8"?>
<!-- Generator: Adobe Illustrator 23.0.3, SVG Export Plug-In . SVG Version: 6.00 Build 0)  -->
<svg version="1.1" id="Ebene_1" xmlns="http://www.w3.org/2000/svg" xmlns:xlink="http://www.w3.org/1999/xlink" x="0px" y="0px"
	 viewBox="0 0 2834.6 2834.6" style="enable-background:new 0 0 2834.6 2834.6;" xml:space="preserve">
<style type="text/css">
	.st0{fill:none;stroke:#FF0000;stroke-width:1.000000e-02;}
	.st1{fill:none;stroke:#FF0000;stroke-width:1.026303e-02;}
	.st2{fill:none;stroke:#FF0000;stroke-width:4.914052e-03;}
</style>
<g>
	<path class="st0" d="M1611.8,1623.3h-6.3c-3-7-7.4-13.2-13-18.2v-10.2h-5.7v-11.3h5.7v-1.4c0-15.7-12.7-28.3-28.3-28.3h-81.6v9.1
		h11.3v21.6h-11.3v9.6h11.3v18.7h-11.3v21h11.3v18.7h-11.3v21h11.3v18.7h-11.3v9.6h11.3v21.5h-11.3v9.1h81.6
		c15.7,0,28.3-12.7,28.3-28.3v-1.4h-5.7v-11.3h5.7v-10.2c5.6-5,10.1-11.2,13-18.2h6.3c3.1,0,5.7-2.5,5.7-5.7V1629
		C1617.4,1625.8,1614.9,1623.3,1611.8,1623.3z M1510.8,1582.2c0-6.3,4.3-11.3,9.6-11.3h45.3c5.3,0,9.6,5.1,9.6,11.3v12.8
		c-5.3-1.9-11.1-2.9-17-2.9c-21.7,0-40.3,13.6-47.6,32.7L1510.8,1582.2L1510.8,1582.2z M1575.5,1704.1c0,6.3-4.3,11.3-9.6,11.3
		h-45.3c-5.3,0-9.6-5.1-9.6-11.3v-42.6c7.3,19.1,25.9,32.7,47.6,32.7c6,0,11.7-1,17-2.9L1575.5,1704.1L1575.5,1704.1z M1586.1,1663
		c-2.8,3.9-6.4,7.2-10.6,9.6c-5.7,3.3-12.4,5-19.6,4.5c-16.7-1.2-30.2-14.7-31.3-31.4c-1.4-19.9,14.3-36.5,33.9-36.5
		c6.2,0,12,1.7,17,4.5c4.2,2.4,7.8,5.7,10.6,9.6c4,5.6,6.4,12.4,6.4,19.8C1592.5,1650.6,1590.1,1657.4,1586.1,1663z M1609.9,1653.9
		h-10.8v-21.5h10.8V1653.9z"/>
</g>
<g>
	<path class="st0" d="M1464.3,1593.2v-39.4H1394c-15.7,0-28.3,12.7-28.3,28.3v1.4h5.7v11.3h-5.7v10.2c-1.4,1.3-2.7,2.6-4,4
		c-0.3,0.3-0.6,0.7-0.9,1s-0.6,0.7-0.8,1c-0.1,0-0.1,0.1-0.1,0.2c-0.3,0.3-0.5,0.7-0.8,1c-1.4,1.9-2.7,3.8-3.9,5.9
		c-0.1,0.3-0.3,0.5-0.4,0.8c-0.1,0.2-0.2,0.4-0.3,0.6c-0.6,1.2-1.2,2.4-1.8,3.7h-6.3c-3.1,0-5.7,2.5-5.7,5.7v28.3
		c0,3.1,2.5,5.7,5.7,5.7h6.3c0.5,1.3,1.1,2.5,1.8,3.7c0.1,0.2,0.2,0.4,0.3,0.6c0.1,0.3,0.3,0.5,0.4,0.8c1.1,2.1,2.4,4,3.9,5.9
		c0.3,0.3,0.5,0.7,0.8,1c0,0.1,0.1,0.1,0.1,0.2c0.3,0.3,0.5,0.7,0.8,1s0.6,0.7,0.9,1c1.3,1.4,2.6,2.7,4,4v10.2h5.7v11.3h-5.7v1.4
		c0,15.7,12.7,28.3,28.3,28.3h70.3v-39.4h11.3v-20.4h-11.3v-19.2h11.3v-20.4h-11.3v-19.3h11.3v-20.4L1464.3,1593.2L1464.3,1593.2z
		 M1358.9,1653.9h-10.8v-21.5h10.8V1653.9z M1382.6,1582.2c0-6.3,4.3-11.3,9.6-11.3h45.3c5.3,0,9.6,5.1,9.6,11.3v42.4
		c0,0.1,0.1,0.2,0.1,0.3h-0.1v-0.3c-7.4-19-25.9-32.4-47.5-32.4c-6,0-11.7,1-17,2.9V1582.2z M1371.3,1662c-0.2-0.3-0.4-0.7-0.6-1
		c-0.7-1.2-1.4-2.5-2-3.8c-0.1-0.2-0.2-0.5-0.3-0.7c-0.2-0.4-0.3-0.8-0.5-1.2c-0.2-0.5-0.4-1.1-0.6-1.6c-0.3-0.8-0.5-1.7-0.7-2.5
		c-0.1-0.3-0.1-0.5-0.2-0.8c0-0.1-0.1-0.3-0.1-0.4c-0.1-0.3-0.1-0.6-0.2-0.9s-0.1-0.6-0.2-0.9c0-0.3-0.1-0.7-0.1-1v-0.1
		c0-0.3-0.1-0.7-0.1-1s0-0.6-0.1-0.9v-3.8c0-0.3,0-0.6,0.1-0.9c0-0.4,0.1-0.7,0.1-1v-0.1c0-0.3,0.1-0.7,0.1-1c0-0.2,0.1-0.5,0.1-0.7
		v-0.3c0-0.3,0.1-0.6,0.2-0.8c0-0.1,0.1-0.3,0.1-0.4c0-0.3,0.1-0.5,0.2-0.8c0.2-0.9,0.4-1.7,0.7-2.5c0.2-0.6,0.4-1.1,0.6-1.6
		c0.1-0.4,0.3-0.8,0.5-1.2c0.1-0.3,0.2-0.5,0.3-0.7c0.6-1.3,1.3-2.6,2-3.8c0.2-0.3,0.4-0.7,0.6-1c2.9-4.4,6.8-8,11.3-10.7
		c5-2.9,10.8-4.5,17-4.5c18.8,0,34,15.2,34,34s-15.2,34-34,34c-6.2,0-12-1.7-17-4.5C1378.1,1670,1374.2,1666.3,1371.3,1662z
		 M1447.3,1704.1L1447.3,1704.1c-0.1,6.3-4.4,11.3-9.7,11.3h-45.3c-5.3,0-9.6-5.1-9.6-11.3v-12.8c5.3,1.9,11,2.9,17,2.9
		c21.7,0,40.3-13.6,47.6-32.7V1704.1z"/>
</g>
<rect x="1387.6" y="1628.9" class="st1" width="23.8" height="23.8"/>
<rect x="1546.6" y="1628.9" class="st1" width="23.8" height="23.8"/>
<path class="st2" d="M1676.9,1587.3v136.1c0,3.1-2.6,5.6-5.7,5.6h-4.3l3.4-2.9l-7.3-8.7l-8.8,7.4v-139.1l8.8,7.4l7.3-8.7l-3.4-2.8
	h4.3C1674.4,1581.6,1676.9,1584.2,1676.9,1587.3z"/>
<path class="st2" d="M1647.2,1584.4v136.1c0,3.2-2.6,5.7-5.7,5.6h-4.3l3.4-2.9l-7.3-8.7l-8.8,7.4v-139.1l8.8,7.4l7.3-8.7l-3.4-2.8
	h4.3C1644.7,1578.7,1647.2,1581.3,1647.2,1584.4z"/>
<path class="st0" d="M1521.6,1525.2L1521.6,1525.2l-25.5-0.1v22.7h56.7v-22.6H1521.6z M1507.6,1538
	C1507.5,1538,1507.5,1538,1507.6,1538c-0.8-0.1-1.4-0.7-1.4-1.4c0-0.7,0.6-1.3,1.3-1.4h0.1c0.8,0,1.4,0.6,1.4,1.4
	C1509,1537.3,1508.3,1538,1507.6,1538z M1541.6,1538C1541.5,1538,1541.5,1538,1541.6,1538c-0.9,0-1.5-0.6-1.5-1.4s0.6-1.4,1.4-1.4
	h0.1c0.7,0,1.3,0.6,1.3,1.4S1542.3,1538,1541.6,1538z"/>
<path class="st0" d="M1462.7,1525.2L1462.7,1525.2l-25.5-0.1v22.7h56.7v-22.6H1462.7z M1448.6,1538
	C1448.6,1538,1448.5,1538,1448.6,1538c-0.8-0.1-1.4-0.7-1.4-1.4c0-0.7,0.6-1.3,1.3-1.4h0.1c0.8,0,1.4,0.6,1.4,1.4
	C1450,1537.3,1449.4,1538,1448.6,1538z M1482.6,1538C1482.6,1538,1482.5,1538,1482.6,1538c-0.9,0-1.5-0.6-1.5-1.4s0.6-1.4,1.4-1.4
	h0.1c0.7,0,1.3,0.6,1.3,1.4S1483.3,1538,1482.6,1538z"/>
</svg>
